<?xml version="1.0" encoding="UTF-8" standalone="no"?>
<svg width="96px" height="98px" viewBox="0 0 96 98" version="1.1" xmlns="http://www.w3.org/2000/svg" xmlns:xlink="http://www.w3.org/1999/xlink">
    <defs></defs>
    <g stroke="none" stroke-width="1" fill="none" fill-rule="evenodd">
        <g transform="translate(-46.000000, -277.000000)">
            <g transform="translate(46.000000, 277.000000)">
                <path d="M96,56.0000491 L96,2.99990186 C96,1.34806404 94.654639,0 92.9950521,0 L3.00494794,0 C1.33876028,0 0,1.34310181 0,2.99990186 L0,56.0000491 L0,17 L96,17 L96,56.0000491 Z M15,11 C16.6568542,11 18,9.65685425 18,8 C18,6.34314575 16.6568542,5 15,5 C13.3431458,5 12,6.34314575 12,8 C12,9.65685425 13.3431458,11 15,11 Z M79,11 C80.6568542,11 82,9.65685425 82,8 C82,6.34314575 80.6568542,5 79,5 C77.3431458,5 76,6.34314575 76,8 C76,9.65685425 77.3431458,11 79,11 Z" fill="#7D7D7D"></path>
                <path d="M96,35.0725368 L96,94.9977835 C96,96.6558619 94.6612397,98 92.9950521,98 L3.00494794,98 C1.34536102,98 0,96.6656554 0,94.9977835 L0,35.0725368 L0,16 L96,16 L96,35.0725368 Z M6,48 L24,48 L24,66 L6,66 L6,48 Z M28,25 L46,25 L46,43 L28,43 L28,25 Z M28,48 L46,48 L46,66 L28,66 L28,48 Z M50,25 L68,25 L68,43 L50,43 L50,25 Z M72,25 L90,25 L90,43 L72,43 L72,25 Z M72,48 L90,48 L90,66 L72,66 L72,48 Z M50,72 L68,72 L68,90 L50,90 L50,72 Z M28,72 L46,72 L46,90 L28,90 L28,72 Z M6,72 L24,72 L24,90 L6,90 L6,72 Z M50,48 L68,48 L68,66 L50,66 L50,48 Z" fill="#D8D8D8"></path>
            </g>
        </g>
    </g>
</svg>