<?xml version="1.0" encoding="UTF-8" standalone="no"?>
<svg width="1500px" height="595px" viewBox="0 0 1500 595" version="1.1" xmlns="http://www.w3.org/2000/svg" xmlns:xlink="http://www.w3.org/1999/xlink">
    <defs>
        <linearGradient x1="50%" y1="0%" x2="50%" y2="100%" id="linearGradient-1">
            <stop stop-color="#EB4019" offset="0%"></stop>
            <stop stop-color="#BC2121" offset="100%"></stop>
        </linearGradient>
        <linearGradient x1="50%" y1="0%" x2="50%" y2="100%" id="linearGradient-2">
            <stop stop-color="#000000" stop-opacity="0.599892437" offset="0%"></stop>
            <stop stop-color="#000000" stop-opacity="0.302875906" offset="100%"></stop>
        </linearGradient>
    </defs>
    <g stroke="none" stroke-width="1" fill="none" fill-rule="evenodd">
        <g>
            <g>
                <rect fill="#9C2C9D" x="0" y="0" width="150" height="150"></rect>
                <rect fill="#6B1F91" x="0" y="149" width="150" height="150"></rect>
                <rect fill="#6B1F91" x="1349" y="150" width="154.761486" height="150"></rect>
                <rect fill="#30217D" x="0" y="298" width="150" height="150"></rect>
                <rect fill="#263D96" x="0" y="447" width="150" height="150"></rect>
                <rect fill="#263D96" x="1349" y="299" width="154.761486" height="150"></rect>
                <rect fill="#1366BA" x="150" y="447" width="150" height="150"></rect>
                <rect fill="#068DAE" x="150" y="298" width="150" height="150"></rect>
                <rect fill="#068DAE" x="1349" y="447" width="154.761486" height="150"></rect>
                <rect fill="#209F97" x="150" y="149" width="150" height="150"></rect>
                <rect fill="#209F97" x="1199" y="300" width="150" height="150"></rect>
                <rect fill="#28AD5E" x="300" y="298" width="150" height="150"></rect>
                <rect fill="#28AD5E" x="1199" y="447" width="150" height="150"></rect>
                <rect fill="#EB9213" x="450" y="298" width="150" height="150"></rect>
                <rect fill="#EB9213" x="1049" y="150" width="150" height="150"></rect>
                <rect fill="#9EBD2B" x="450" y="447" width="150" height="150"></rect>
                <rect fill="#3DA435" x="300" y="447" width="150" height="150"></rect>
                <rect fill="#EBC521" x="450" y="149" width="150" height="150"></rect>
                <rect fill="#EBC521" x="1049" y="300" width="150" height="150"></rect>
                <rect fill="#FFDF00" x="1049" y="447" width="150" height="150"></rect>
                <rect fill="url(#linearGradient-1)" x="600" y="447" width="150" height="150"></rect>
                <rect fill="url(#linearGradient-1)" x="1049" y="0" width="150" height="150"></rect>
                <rect fill="#EB0CBB" x="750" y="447" width="150" height="150"></rect>
                <rect fill="#BD214E" x="750" y="298" width="150" height="150"></rect>
                <rect fill="#7C35A3" x="899" y="298" width="150" height="150"></rect>
                <rect fill="#BD1EA1" x="899" y="447" width="150" height="150"></rect>
                <rect fill="#4157B4" x="899" y="149" width="150" height="150"></rect>
                <rect fill="url(#linearGradient-2)" x="0" y="0" width="150" height="597"></rect>
                <rect fill="url(#linearGradient-2)" x="150" y="149" width="150" height="449"></rect>
                <rect fill="url(#linearGradient-2)" x="300" y="298" width="150" height="299"></rect>
                <rect fill="url(#linearGradient-2)" x="450" y="149" width="150" height="449"></rect>
                <rect fill="url(#linearGradient-2)" x="600" y="447" width="150" height="150"></rect>
                <rect fill="url(#linearGradient-2)" x="750" y="298" width="149" height="299"></rect>
                <rect fill="url(#linearGradient-2)" x="899" y="149" width="150" height="449"></rect>
                <rect fill="url(#linearGradient-2)" x="1199" y="300" width="150" height="299"></rect>
                <rect fill="url(#linearGradient-2)" x="1349" y="150" width="151" height="449"></rect>
                <rect fill="url(#linearGradient-2)" x="1049" y="0" width="150" height="597"></rect>
            </g>
        </g>
    </g>
</svg>